<?xml version="1.0" encoding="UTF-8"?>
<svg width="24px" height="24px" viewBox="0 0 24 24" version="1.1" xmlns="http://www.w3.org/2000/svg" xmlns:xlink="http://www.w3.org/1999/xlink">
    <title>anuncios</title>
    <g id="anuncios" stroke="none" stroke-width="1" fill="none" fill-rule="evenodd">
        <path d="M15,6 C15,6.55228475 14.5522847,7 14,7 L4,7 C3.44771525,7 3,6.55228475 3,6 C3,5.44771525 3.44771525,5 4,5 L14,5 C14.5522847,5 15,5.44771525 15,6 Z" id="Path" fill="#171C1F"></path>
        <path d="M15,12 C15,12.5522847 14.5522847,13 14,13 L4,13 C3.44771525,13 3,12.5522847 3,12 C3,11.4477153 3.44771525,11 4,11 L14,11 C14.5522847,11 15,11.4477153 15,12 Z" id="Path" fill="#171C1F"></path>
        <path d="M4,17 L14,17 C14.5522847,17 15,17.4477153 15,18 C15,18.5522847 14.5522847,19 14,19 L4,19 C3.44771525,19 3,18.5522847 3,18 C3,17.4477153 3.44771525,17 4,17 Z" id="Path" fill="#171C1F"></path>
        <path d="M21,5 L21,7 C21,7.55228475 20.5522847,8 20,8 L18,8 C17.4477153,8 17,7.55228475 17,7 L17,5 C17,4.44771525 17.4477153,4 18,4 L20,4 C20.5522847,4 21,4.44771525 21,5 Z" id="Path" fill="#171C1F"></path>
        <path d="M21,11 L21,13 C21,13.5522847 20.5522847,14 20,14 L18,14 C17.4477153,14 17,13.5522847 17,13 L17,11 C17,10.4477153 17.4477153,10 18,10 L20,10 C20.5522847,10 21,10.4477153 21,11 Z" id="Path" fill="#171C1F"></path>
        <path d="M18,16 L20,16 C20.5522847,16 21,16.4477153 21,17 L21,19 C21,19.5522847 20.5522847,20 20,20 L18,20 C17.4477153,20 17,19.5522847 17,19 L17,17 C17,16.4477153 17.4477153,16 18,16 Z" id="Path" fill="#171C1F"></path>
    </g>
</svg>