<?xml version="1.0" encoding="UTF-8"?>
<svg width="24px" height="24px" viewBox="0 0 24 24" version="1.1" xmlns="http://www.w3.org/2000/svg" xmlns:xlink="http://www.w3.org/1999/xlink">
    <title>bell</title>
    <g id="bell" stroke="none" stroke-width="1" fill="none" fill-rule="evenodd">
        <path d="M21.4407977,1.9859164 C22.6912415,3.07291059 22.8237435,4.96777845 21.7367494,6.21822223 L20.9377642,7.13734946 C22.1201655,9.80914654 21.739231,13.0031679 19.7825719,15.3350234 L17.6223,17.9095352 L17.8450383,20.4554451 C17.8681534,20.7196524 17.7853659,20.9822209 17.614888,21.1853885 L16.939961,21.9897352 C16.5849592,22.4128098 15.9542036,22.4679938 15.531129,22.112992 L11.7594908,18.9482118 C10.3122047,20.6516104 7.74159337,20.7664486 6.01069101,19.3140491 C4.27978866,17.8616496 3.94650032,15.3101502 5.37270628,13.5890632 L1.85723567,10.6392332 C1.43416101,10.2842314 1.37897705,9.65347577 1.73397884,9.23040111 L2.40890583,8.42605444 C2.5793837,8.22288682 2.82358727,8.09576249 3.08779453,8.07264735 L5.63370449,7.84990909 L7.79397637,5.27539732 C9.89788941,2.76805139 13.2892577,1.87931273 16.2910023,2.89543693 L16.5832627,3.00111192 L17.2084919,2.28186805 C18.2954861,1.03142428 20.1903539,0.898922209 21.4407977,1.9859164 Z M20.1286796,3.49533556 C19.7439277,3.16087581 19.1761441,3.17278186 18.8060859,3.50442858 L18.717911,3.59398611 L17.0258281,5.53798366 C16.7633764,5.33384456 16.5315739,5.16982818 16.3984338,5.10295161 C14.0765878,3.93668245 11.252125,4.44859939 9.49293164,6.37058141 L9.32606525,6.56097254 L6.89954203,9.45279031 C6.75747713,9.62209666 6.56421384,9.73859517 6.35084127,9.78610187 L6.22065333,9.8061974 L4.18785911,9.98404385 L15.771656,19.7040035 L15.5938095,17.6712095 C15.5745468,17.4510368 15.6288278,17.232002 15.7461127,17.0475324 L15.8239598,16.941266 L18.250483,14.0494482 C19.9054411,12.0771459 20.0447552,9.27099259 18.680696,7.1526028 L18.5342242,6.93597479 L19.8529386,5.33679247 L20.2273302,4.90610417 C20.5896616,4.48928958 20.5454942,3.85766696 20.1286796,3.49533556 Z M10.2273332,17.6625789 L6.90485948,14.8746924 C6.21301089,15.7213411 6.38551517,17.0177494 7.29626623,17.7819602 C8.16147974,18.5079606 9.38400824,18.4944107 10.1159619,17.7810282 L10.2273332,17.6625789 Z" id="Shape" fill="#171D20"></path>
    </g>
</svg>