<?xml version="1.0" encoding="UTF-8"?>
<svg width="24px" height="24px" viewBox="0 0 24 24" version="1.1" xmlns="http://www.w3.org/2000/svg" xmlns:xlink="http://www.w3.org/1999/xlink">
    <title>close</title>
    <g id="close" stroke="none" stroke-width="1" fill="none" fill-rule="evenodd">
        <path d="M12,13.4156382 L17.2932513,18.71 C17.6836937,19.1005243 18.3167258,19.1005243 18.7071682,18.71 C19.0976106,18.3194757 19.0976106,17.6863108 18.7071682,17.2957865 L13.4147774,12.0005639 L18.7071068,6.70710678 C19.0976311,6.31658249 19.0976311,5.68341751 18.7071068,5.29289322 C18.3165825,4.90236893 17.6834175,4.90236893 17.2928932,5.29289322 L12,10.5857864 L6.70710678,5.29289322 C6.31658249,4.90236893 5.68341751,4.90236893 5.29289322,5.29289322 C4.90236893,5.68341751 4.90236893,6.31658249 5.29289322,6.70710678 L10.5852226,12.0005639 L5.29283178,17.2957865 C4.90238941,17.6863108 4.90238941,18.3194757 5.29283178,18.71 C5.68327415,19.1005243 6.31630632,19.1005243 6.70674869,18.71 L12,13.4156382 Z" fill="#5D737F"></path>
    </g>
</svg>