<?xml version="1.0" encoding="UTF-8"?>
<svg width="24px" height="24px" viewBox="0 0 24 24" version="1.1" xmlns="http://www.w3.org/2000/svg" xmlns:xlink="http://www.w3.org/1999/xlink">
    <title>Artboard Copy 2</title>
    <g id="Artboard-Copy-2" stroke="none" stroke-width="1" fill="none" fill-rule="evenodd">
        <path d="M12,2 C17.5228475,2 22,6.4771525 22,12 C22,17.5228475 17.5228475,22 12,22 C6.4771525,22 2,17.5228475 2,12 C2,6.4771525 6.4771525,2 12,2 Z M12,4 C7.581722,4 4,7.581722 4,12 C4,16.418278 7.581722,20 12,20 C16.418278,20 20,16.418278 20,12 C20,7.581722 16.418278,4 12,4 Z M9.17142857,7.75 C9.36255158,7.75 9.52943242,7.81068394 9.65812808,7.93325123 C9.75866943,8.0290049 9.83897969,8.13608525 9.89639605,8.25096675 L11.9828583,12.289614 L14.0678218,8.25391089 C14.1267346,8.13608525 14.2070449,8.0290049 14.3075862,7.93325123 C14.4362819,7.81068394 14.6031627,7.75 14.7942857,7.75 L15.2285714,7.75 C15.3792165,7.75 15.5150192,7.80718009 15.622491,7.91465188 C15.7299628,8.02212367 15.7871429,8.15792637 15.7871429,8.30857143 L15.7871429,11.3084416 L16.6946853,11.3084416 C16.8450132,11.3084416 16.9804153,11.3660611 17.0872484,11.4740337 C17.1935761,11.5814956 17.25,11.7169318 17.25,11.867013 L17.25,12.2327273 C17.25,12.3828085 17.1935761,12.5182447 17.0872484,12.6257065 C16.9804153,12.7336792 16.8450132,12.7912987 16.6946853,12.7912987 L15.7871429,12.7912987 L15.7871429,13.4642857 L16.6946853,13.4642857 C16.8450132,13.4642857 16.9804153,13.5219053 17.0872484,13.6298779 C17.1935761,13.7373398 17.25,13.8727759 17.25,14.0228571 L17.25,14.3885714 C17.25,14.5386526 17.1935761,14.6740888 17.0872484,14.7815507 C16.9804153,14.8895233 16.8450132,14.9471429 16.6946853,14.9471429 L15.7871429,14.9471429 L15.7871429,15.6914286 C15.7871429,15.8420736 15.7299628,15.9778763 15.622491,16.0853481 C15.5150192,16.1928199 15.3792165,16.25 15.2285714,16.25 L14.76,16.25 C14.6093549,16.25 14.4735522,16.1928199 14.3660804,16.0853481 C14.2586087,15.9778763 14.2014286,15.8420736 14.2014286,15.6914286 L14.2014286,11.2999546 L12.8891597,13.8319328 C12.8163038,13.9685376 12.7359782,14.0795759 12.6459416,14.1646104 C12.5282706,14.2757441 12.3750775,14.33 12.2,14.33 L11.7657143,14.33 C11.5906367,14.33 11.4374436,14.2757441 11.3197727,14.1646104 C11.2297361,14.0795759 11.1494105,13.9685376 11.0751819,13.829322 L9.76428571,11.2999646 L9.76428571,15.6914286 C9.76428571,15.8420736 9.70710563,15.9778763 9.59963384,16.0853481 C9.49216205,16.1928199 9.35635934,16.25 9.20571429,16.25 L8.73714286,16.25 C8.5864978,16.25 8.45069509,16.1928199 8.3432233,16.0853481 C8.23575152,15.9778763 8.17857143,15.8420736 8.17857143,15.6914286 L8.17857143,14.9471429 L7.30531474,14.9471429 C7.1549868,14.9471429 7.01958469,14.8895233 6.91275162,14.7815507 C6.8064239,14.6740888 6.75,14.5386526 6.75,14.3885714 L6.75,14.0228571 C6.75,13.8727759 6.8064239,13.7373398 6.91275162,13.6298779 C7.01958469,13.5219053 7.1549868,13.4642857 7.30531474,13.4642857 L8.17857143,13.4642857 L8.17857143,12.7912987 L7.30531474,12.7912987 C7.1549868,12.7912987 7.01958469,12.7336792 6.91275162,12.6257065 C6.8064239,12.5182447 6.75,12.3828085 6.75,12.2327273 L6.75,11.867013 C6.75,11.7169318 6.8064239,11.5814956 6.91275162,11.4740337 C7.01958469,11.3660611 7.1549868,11.3084416 7.30531474,11.3084416 L8.17857143,11.3084416 L8.17857143,8.30857143 C8.17857143,8.15792637 8.23575152,8.02212367 8.3432233,7.91465188 C8.45069509,7.80718009 8.5864978,7.75 8.73714286,7.75 L9.17142857,7.75 Z" id="Icon-colour" fill="#171D20"></path>
    </g>
</svg>