<?xml version="1.0" encoding="UTF-8"?>
<svg width="24px" height="24px" viewBox="0 0 24 24" version="1.1" xmlns="http://www.w3.org/2000/svg" xmlns:xlink="http://www.w3.org/1999/xlink">
    <title>Artboard</title>
    <g id="Artboard" stroke="none" stroke-width="1" fill="none" fill-rule="evenodd">
        <path d="M5.25,15.5 L13.7,15.5 C14.2522847,15.5 14.7,15.9477153 14.7,16.5 C14.7,17.0356711 14.2788156,17.4729694 13.7495476,17.4987939 C13.0596441,17.5 12.5,18.0596441 12.5,18.75 C12.5,19.4403559 13.0596441,20 13.75,20 L15,20 C15.5522847,20 16,19.5522847 16,19 L16,5.99936046 C16,5.46280373 16.1207587,4.9544517 16.3365805,4.5 L7.5,4.5 C6.94771525,4.5 6.5,4.94771525 6.5,5.5 L6.5,13.5 C6.5,14.0522847 6.05228475,14.5 5.5,14.5 C4.94771525,14.5 4.5,14.0522847 4.5,13.5 L4.5,5.5 C4.5,3.84314575 5.84314575,2.5 7.5,2.5 L20,2.5 C20.1065033,2.5 20.2091179,2.51664954 20.305383,2.54748779 C21.8350933,2.81151551 22.9987209,4.14486786 22.9987209,5.75 C22.9987209,7.54492544 21.5436464,9 19.7487209,9 L18,9 L18,19 C18,20.6568542 16.6568542,22 15,22 L5.25,22 C3.45507456,22 2,20.5449254 2,18.75 C2,16.9550746 3.45507456,15.5 5.25,15.5 Z M10.5,18.75 C10.5,18.3070496 10.5886141,17.884796 10.7490817,17.5 L5.25,17.5 C4.55964406,17.5 4,18.0596441 4,18.75 C4,19.4403559 4.55964406,20 5.25,20 L10.7490817,20 C10.5886141,19.615204 10.5,19.1929504 10.5,18.75 Z M19.7487209,7 C20.4390769,7 20.9987209,6.44035594 20.9987209,5.75 C20.9987209,5.05964406 20.4390769,4.5 19.7487209,4.5 L19.4993605,4.5 C18.6712865,4.5 18,5.17128654 18,5.99936046 L18,7 L19.7487209,7 Z M8.5,13 C7.94771525,13 7.5,12.5522847 7.5,12 C7.5,11.4477153 7.94771525,11 8.5,11 L10.5,11 C11.0522847,11 11.5,11.4477153 11.5,12 C11.5,12.5522847 11.0522847,13 10.5,13 L8.5,13 Z M8.5,9 C7.94771525,9 7.5,8.55228475 7.5,8 C7.5,7.44771525 7.94771525,7 8.5,7 L13.5,7 C14.0522847,7 14.5,7.44771525 14.5,8 C14.5,8.55228475 14.0522847,9 13.5,9 L8.5,9 Z" id="Icon-colour" fill="#171C1F"></path>
    </g>
</svg>