<?xml version="1.0" encoding="UTF-8"?>
<svg width="24px" height="24px" viewBox="0 0 24 24" version="1.1" xmlns="http://www.w3.org/2000/svg" xmlns:xlink="http://www.w3.org/1999/xlink">
    <title>destacar</title>
    <defs>
        <path d="M13.2619391,13.1375558 L15,16.3154734 L16.7380609,13.1375558 L19.9159785,11.3994949 L16.7380609,9.66143408 L15,6.48351647 L13.2619391,9.66143408 L10.0840215,11.3994949 L13.2619391,13.1375558 Z M7.52015851,12.2768501 C6.82661383,11.897538 6.82661383,10.9014519 7.52015851,10.5221397 L11.7883134,8.18780832 L14.1226448,3.91965345 C14.501957,3.22610877 15.498043,3.22610877 15.8773552,3.91965345 L18.2116866,8.18780832 L22.4798415,10.5221397 C23.1733862,10.9014519 23.1733862,11.897538 22.4798415,12.2768501 L18.2116866,14.6111815 L15.8773552,18.8793364 C15.498043,19.5728811 14.501957,19.5728811 14.1226448,18.8793364 L11.7883134,14.6111815 L7.52015851,12.2768501 Z M6,6 L6,8 C6,8.55228475 5.55228475,9 5,9 C4.44771525,9 4,8.55228475 4,8 L4,6 L2,6 C1.44771525,6 1,5.55228475 1,5 C1,4.44771525 1.44771525,4 2,4 L4,4 L4,2 C4,1.44771525 4.44771525,1 5,1 C5.55228475,1 6,1.44771525 6,2 L6,4 L8,4 C8.55228475,4 9,4.44771525 9,5 C9,5.55228475 8.55228475,6 8,6 L6,6 Z M9,21 L9,22 C9,22.5522847 8.55228475,23 8,23 C7.44771525,23 7,22.5522847 7,22 L7,21 L6,21 C5.44771525,21 5,20.5522847 5,20 C5,19.4477153 5.44771525,19 6,19 L7,19 L7,18 C7,17.4477153 7.44771525,17 8,17 C8.55228475,17 9,17.4477153 9,18 L9,19 L10,19 C10.5522847,19 11,19.4477153 11,20 C11,20.5522847 10.5522847,21 10,21 L9,21 Z" id="path-1"></path>
    </defs>
    <g id="destacar" stroke="none" stroke-width="1" fill="none" fill-rule="evenodd">
        <mask id="mask-2" fill="white">
            <use xlink:href="#path-1"></use>
        </mask>
        <use id="Icon-colour" fill="#171D20" xlink:href="#path-1"></use>
    </g>
</svg>