<?xml version="1.0" encoding="UTF-8"?>
<svg width="24px" height="24px" viewBox="0 0 24 24" version="1.1" xmlns="http://www.w3.org/2000/svg" xmlns:xlink="http://www.w3.org/1999/xlink">
    <title>Artboard</title>
    <defs>
        <path d="M13.5,3 C14.61,3 15.5,3.89 15.5,5 L15.5,7.00104344 C15.5,7.55275191 15.0561352,8 14.5,8 C13.9477153,8 13.5,7.55733967 13.5,7.00104344 L13.5,5 L4.5,5 L4.5,19 L13.5,19 L13.5,16.9989566 C13.5,16.4472481 13.9438648,16 14.5,16 C15.0522847,16 15.5,16.4426603 15.5,16.9989566 L15.5,19 C15.5,20.1045695 14.6045695,21 13.5,21 L4.5,21 C3.3954305,21 2.5,20.1045695 2.5,19 L2.5,5 C2.5,3.89 3.4,3 4.5,3 L13.5,3 Z M18.6179994,7.79401807 L22.2064531,11.3824717 C22.5994538,11.7754725 22.5962408,12.4042303 22.2064531,12.7940181 L18.6179994,16.3824717 C18.2249986,16.7754725 17.595153,16.7711716 17.2040233,16.380042 L17.2204292,16.3964479 C16.8229316,15.9989503 16.8303106,15.3701605 17.2226877,14.9777835 L19.1122262,13.0882449 L9.50046889,13.0882449 C8.95820878,13.0882449 8.50231412,12.6405297 8.50231412,12.0882449 C8.50231412,11.5321097 8.94920323,11.0882449 9.50046889,11.0882449 L19.1122262,11.0882449 L17.2226877,9.19870633 C16.8310373,8.80705594 16.8292995,8.17117164 17.2204292,7.78004195 L17.2040233,7.79644787 C17.6015209,7.39895028 18.2282116,7.40423032 18.6179994,7.79401807 Z" id="path-1"></path>
    </defs>
    <g id="Artboard" stroke="none" stroke-width="1" fill="none" fill-rule="evenodd">
        <mask id="mask-2" fill="white">
            <use xlink:href="#path-1"></use>
        </mask>
        <use id="Icon-colour" fill="#171C1F" xlink:href="#path-1"></use>
    </g>
</svg>