<?xml version="1.0" encoding="UTF-8"?>
<svg width="24px" height="24px" viewBox="0 0 24 24" version="1.1" xmlns="http://www.w3.org/2000/svg" xmlns:xlink="http://www.w3.org/1999/xlink">
    <title>heart</title>
    <defs>
        <path d="M12.79045,7.09606979 C12.4074438,7.68973245 11.603391,7.68491685 11.2263094,7.0867019 C10.3842199,5.75078292 9.28152282,5.09576969 7.88263756,5.09576969 C5.66355646,5.09576969 3.90930788,7.16723393 3.90930788,9.84815238 C3.90930788,10.7801806 4.16365688,11.7059836 4.69873286,12.7029786 C5.22741454,13.6880593 6.00900099,14.7244661 7.28404504,16.1342076 C7.54771975,16.4257373 8.14131264,17.0584295 9.11207798,18.0856605 C9.35391783,18.3415583 10.1450399,19.1779061 10.2915488,19.332922 C10.6883408,19.7527533 10.9224466,20.0014529 11.0471524,20.1361438 L11.5850518,20.7193761 C11.8124779,20.9659683 12.1877434,20.9657283 12.4149482,20.7193761 L12.9552087,20.1335887 C13.0783647,20.0005749 13.3122892,19.7520722 13.7091195,19.3322047 C13.8544649,19.1784216 14.6459448,18.3417005 14.8758762,18.098404 C15.8587908,17.058319 16.4523315,16.4256807 16.715955,16.1342076 C17.990999,14.7244661 18.7725855,13.6880593 19.3012671,12.7029786 C19.8363431,11.7059836 20.0906921,10.7801806 20.0906921,9.84815238 C20.0906921,7.16723393 18.3364435,5.09576969 16.1173624,5.09576969 C14.7554511,5.09576969 13.6578111,5.75165342 12.79045,7.09606979 Z M16.1173624,3 C19.4233417,3 22,6.04258784 22,9.84815238 C22,11.1753559 21.6464487,12.4622445 20.9463419,13.7667377 C20.3233807,14.9274872 19.4482757,16.0879025 18.0709217,17.6107622 C17.7928463,17.9182138 17.1974209,18.552861 16.2137757,19.5937193 C15.970638,19.85099 15.1791262,20.6877448 15.0341756,20.8411103 C14.6428532,21.2551501 14.4108629,21.5015981 14.2956567,21.6260229 L13.756725,22.2103724 C12.7861819,23.2627068 11.2147452,23.263712 10.2432737,22.210371 L9.70670181,21.6285752 C9.58994099,21.502468 9.35777863,21.2558331 8.96648541,20.8418198 C8.82037233,20.6872228 8.02922246,19.8508456 7.7997238,19.6080066 C6.802675,18.5529635 6.20720591,17.9182716 5.92907832,17.6107622 C4.55172434,16.0879025 3.67661926,14.9274872 3.05365809,13.7667377 C2.35355129,12.4622445 2,11.1753559 2,9.84815238 C2,6.04258784 4.57665825,3 7.88263756,3 C9.5080121,3 10.9100104,3.63834201 12.0166418,4.85973447 C13.1313216,3.63882361 14.5201286,3 16.1173624,3 Z" id="path-1"></path>
    </defs>
    <g id="heart" stroke="none" stroke-width="1" fill="none" fill-rule="evenodd">
        <mask id="mask-2" fill="white">
            <use xlink:href="#path-1"></use>
        </mask>
        <use id="Shape" fill="#171D20" xlink:href="#path-1"></use>
    </g>
</svg>