<?xml version="1.0" encoding="UTF-8"?>
<svg width="40px" height="40px" viewBox="0 0 40 40" version="1.1" xmlns="http://www.w3.org/2000/svg" xmlns:xlink="http://www.w3.org/1999/xlink">
    <title>logo-ma-launcher</title>
    <g id="logo-ma-launcher" stroke="none" stroke-width="1" fill="none" fill-rule="evenodd">
        <path d="M34.2662101,0.00983333333 L5.72396377,0.00983333333 C2.56273188,0.00983333333 -2.17391304e-05,2.57251449 -2.17391304e-05,5.73374638 L-2.17391304e-05,34.2760652 C-2.17391304e-05,37.4373696 2.56273188,40.0000507 5.72396377,40.0000507 L34.2662101,40.0000507 C37.427442,40.0000507 39.9901957,37.4373696 39.9901957,34.2760652 L39.9901957,5.73374638 C39.9901957,2.57251449 37.427442,0.00983333333 34.2662101,0.00983333333" id="Fill-1" fill="#18BA5D"></path>
        <path d="M30.8832319,12.3891812 C30.114029,11.3422246 28.6427971,10.0941812 26.0020725,10.0941812 C25.2515652,10.0941812 24.5195362,10.2067899 23.8261304,10.4289638 L23.8076522,10.4348333 L23.7893188,10.4410652 C23.1138116,10.6700507 22.4927971,10.9604855 21.8914928,11.3287464 C21.7204783,11.1873696 21.5398986,11.0550507 21.3500435,10.9320797 C20.4917101,10.3761377 19.5014203,10.0941812 18.4067826,10.0941812 C17.3200435,10.0941812 16.2876522,10.3010652 15.3381594,10.7088913 C15.1011304,10.8107754 14.8677971,10.9231667 14.6387391,11.0456304 C14.5248261,10.9567174 14.4013478,10.8749783 14.2685217,10.8004855 C13.8374348,10.5591087 13.4204058,10.4421522 12.9922174,10.4421522 L10.2977971,10.4422971 C9.55315942,10.4422971 8.8627971,10.7563551 8.35395652,11.3266449 C8.03895652,11.6800507 7.66410145,12.2884565 7.66410145,13.1838913 L7.66410145,27.1472971 C7.66410145,27.8736739 7.90265217,28.5251232 8.35381159,29.0309928 C8.86265217,29.6014275 9.55308696,29.9156304 10.297942,29.9156304 L14.1195362,29.9156304 C14.8566377,29.9156304 15.5428696,29.6015 16.0516377,29.0309928 C16.0662754,29.0145435 16.081058,28.997587 16.0959855,28.9800507 C16.1106232,28.9973696 16.1254783,29.014471 16.1406957,29.0315 C16.6487391,29.6013551 17.3393188,29.9156304 18.0843188,29.9156304 L21.905913,29.9156304 C22.6507681,29.9156304 23.3412754,29.6013551 23.8501884,29.0307029 C23.8627971,29.0165725 23.8754783,29.0020797 23.8883043,28.9870797 C23.9008406,29.0017899 23.9135942,29.0164275 23.9264928,29.0309203 C24.4354058,29.6014275 25.1257681,29.9156304 25.8706957,29.9156304 L29.6922174,29.9156304 C30.437,29.9156304 31.1274348,29.6015 31.6363478,29.0309928 C31.9507681,28.6786739 32.326058,28.0654855 32.326058,27.1472971 L32.326058,17.8696159 C32.326058,15.5033116 31.8541014,13.7106304 30.8832319,12.3891812" id="Fill-4" fill="#FFFFFF"></path>
        <path d="M26.0020435,12.3987319 C28.7067536,12.3987319 30.0215362,14.1882971 30.0215362,17.8696014 L30.0215362,27.1472826 C30.0215362,27.3529348 29.9654493,27.4421377 29.9165362,27.4969928 C29.8270435,27.5972826 29.7558116,27.6110507 29.6921884,27.6110507 L25.8707391,27.6110507 C25.8070435,27.6110507 25.7358116,27.5972826 25.6463188,27.4969928 C25.5595797,27.3996739 25.5413913,27.2530797 25.5413913,27.1472826 L25.5413913,18.7664855 C25.5413913,18.1859058 25.4847971,17.7346739 25.3720435,17.3979348 C25.1845797,16.7675 24.8033478,16.6732971 24.5928406,16.6732971 C24.3554493,16.6732971 24.1115362,16.7133696 23.8470435,16.7956884 C23.5806667,16.8786594 23.3114638,17.0280072 23.1037101,17.1505435 C23.0136377,17.2049638 22.9277681,17.2494565 22.8490725,17.2905435 C22.7945797,17.3188768 22.7431304,17.3458333 22.6953768,17.3725725 C22.5695797,17.4430072 22.4609565,17.5038768 22.3711739,17.5710507 L22.2351594,17.6728623 L22.2351594,17.8427899 L22.2351594,27.1472826 C22.2351594,27.3529348 22.1790725,27.4422101 22.1302319,27.4969203 C22.0407391,27.5972826 21.9695072,27.6110507 21.9058841,27.6110507 L18.0842899,27.6110507 C18.0206667,27.6110507 17.9494348,27.5972826 17.859942,27.4969203 C17.7731304,27.3996739 17.754942,27.2530797 17.754942,27.1472826 L17.754942,18.7664855 C17.754942,18.1859058 17.6984928,17.7347464 17.5856667,17.3978623 C17.3982029,16.7675 17.0170435,16.6732971 16.8065362,16.6732971 C16.3047971,16.6732971 15.8012464,16.8188768 15.2671159,17.1182246 L15.251029,17.1272826 L15.236029,17.1379348 C15.1528406,17.1972826 15.0585652,17.2539493 14.9754493,17.3040217 C14.9384928,17.3261957 14.9034928,17.3473551 14.884942,17.3592391 C14.735087,17.4432971 14.6305217,17.5410507 14.5445797,17.621558 L14.4368261,17.7221377 L14.4368261,17.8696014 L14.4368261,27.1472826 C14.4368261,27.3529348 14.3807391,27.4422101 14.3318986,27.4969928 C14.2405942,27.5992391 14.166971,27.6110507 14.1195072,27.6110507 L10.297913,27.6110507 C10.2342899,27.6110507 10.163058,27.5972826 10.0736377,27.4969928 C9.98682609,27.3996739 9.96863768,27.2530797 9.96863768,27.1472826 L9.96863768,13.1838768 C9.96863768,13.0457609 10.002913,12.9400362 10.0736377,12.8608333 C10.1629855,12.7606159 10.2342174,12.7467754 10.297913,12.7467754 L12.9921884,12.7466304 C12.9926232,12.7466304 13.0371884,12.7522101 13.1413188,12.8105435 C13.2463188,12.8693841 13.2674783,12.9091667 13.2705942,12.9150362 L13.8198696,13.9459058 L14.0215362,14.3243116 L14.3435652,14.0411957 C14.9291449,13.5264855 15.5697971,13.1176449 16.2478406,12.8262681 C16.9081304,12.5425725 17.6345072,12.3987319 18.4067536,12.3987319 C19.0584928,12.3987319 19.6113913,12.5516304 20.0971884,12.8663406 C20.5829855,13.1809783 20.9661014,13.5980797 21.2358116,14.1061232 L21.4201594,14.4501087 L21.7361739,14.2209058 C21.9409565,14.0723551 22.1342899,13.9320652 22.3533478,13.7898913 C22.4534203,13.7249638 22.5558116,13.6548913 22.6624058,13.5819928 C22.7966812,13.4901087 22.9379855,13.3932971 23.0866087,13.2991667 C23.5431304,13.0188043 24.0168261,12.7972826 24.5292174,12.623587 C24.9948696,12.4743841 25.4903768,12.3987319 26.0020435,12.3987319" id="Fill-6" fill="#18BA5D"></path>
    </g>
</svg>