<?xml version="1.0" encoding="UTF-8"?>
<svg width="150px" height="27px" viewBox="0 0 150 27" version="1.1" xmlns="http://www.w3.org/2000/svg" xmlns:xlink="http://www.w3.org/1999/xlink">
    <title>Artboard</title>
    <g id="Artboard" stroke="none" stroke-width="1" fill="none" fill-rule="evenodd">
        <path d="M149.831967,18.1612833 C149.619467,16.79945 149.001967,15.63445 147.987633,14.67295 C148.328467,14.28045 148.574967,13.8012833 148.686633,13.2682833 L149.1883,10.86945 C149.503133,9.36411667 148.687133,7.86561667 147.2478,7.30645 C146.207133,6.90195 145.138467,6.62795 144.0718,6.49195 L143.645133,6.43995 C142.822133,6.34428333 142.200633,6.30228333 141.615633,6.30228333 L141.615467,6.30228333 L141.6153,6.30228333 C140.895633,6.30245 140.217467,6.36395 139.275467,6.51461667 L139.246133,6.51928333 L139.217133,6.52495 C138.1348,6.72545 136.545133,7.41745 135.328967,8.75845 C135.136633,8.97061667 134.9613,9.19211667 134.8023,9.42111667 C134.7233,9.32811667 134.6438,9.23545 134.560633,9.14545 L134.552967,9.13711667 L134.545133,9.12895 C132.808467,7.28395 130.4218,6.30895 127.642967,6.30895 C125.0208,6.30895 122.8198,7.14278333 121.092633,8.78861667 C120.922133,8.34311667 120.6568,7.94728333 120.322133,7.62545 C120.9388,6.83845 121.309967,5.84545 121.309967,4.76461667 C121.309967,2.22311667 119.271467,0.15545 116.7658,0.15545 C114.2598,0.15545 112.2213,2.22311667 112.2213,4.76461667 C112.2213,5.84545 112.592633,6.83845 113.2093,7.62545 C113.063633,7.76528333 112.931633,7.91911667 112.8143,8.08528333 C112.7638,8.04678333 112.718967,8.00578333 112.6673,7.96811667 C111.787133,7.32495 110.702133,6.84295 109.441967,6.53528333 C108.8333,6.38695 108.174633,6.31145 107.4833,6.31145 L107.426967,6.31178333 C107.3393,6.30995 107.2598,6.30895 107.178967,6.30895 L107.176133,6.30895 L107.173467,6.30895 L106.8388,6.30961667 L106.826467,6.30961667 L106.813967,6.30995 C105.3538,6.32811667 104.007633,6.63511667 102.8123,7.22195 C101.679967,7.75545 100.684133,8.52261667 99.8523,9.50261667 L99.8414667,9.51545 L99.8304667,9.52861667 C99.8198,9.54161667 99.8108,9.55611667 99.8001333,9.56928333 C99.6286333,9.23878333 99.4401333,8.92561667 99.2243,8.64095 C98.4168,7.57711667 96.8719667,6.30895 94.0976333,6.30895 C92.9719667,6.30895 91.8906333,6.52011667 90.8828,6.93661667 C90.6036333,7.04795 90.3293,7.17195 90.0606333,7.30845 C89.9239667,7.20211667 89.7761333,7.10728333 89.6176333,7.02378333 C89.2946333,6.85428333 89.0073,6.75361667 88.7119667,6.70628333 L88.5219667,6.67595 L88.3293,6.67595 L85.4624667,6.67661667 C84.8969667,6.67661667 84.3496333,6.86078333 83.8921333,7.19128333 C83.4333,6.85195 82.8876333,6.66845 82.3064667,6.66845 L78.2818,6.66845 C77.5314667,6.66845 76.8223,6.98078333 76.2848,7.54778333 C76.1948,7.64295 76.1118,7.74378333 76.0368,7.84961667 C75.9613,7.74361667 75.8783,7.64261667 75.7879667,7.54745 C75.2513,6.98078333 74.5419667,6.66845 73.7914667,6.66845 L69.7668,6.66845 C69.0159667,6.66845 68.3066333,6.98111667 67.7689667,7.54878333 C67.6018,7.72511667 67.4623,7.92278333 67.3471333,8.13445 C66.4613,7.21278333 64.9979667,6.30895 62.6559667,6.30895 C61.5304667,6.30895 60.4489667,6.51995 59.4413,6.93661667 C59.1621333,7.04795 58.8878,7.17195 58.6189667,7.30845 C58.4826333,7.20245 58.3351333,7.10761667 58.1769667,7.02445 C57.8534667,6.85445 57.5661333,6.75378333 57.2709667,6.70645 L57.0804667,6.67595 L56.8878,6.67595 L54.0209667,6.67661667 C53.2418,6.67661667 52.4954667,7.02195 51.9741333,7.62428333 C51.7636333,7.86761667 51.5993,8.14595 51.4814667,8.44495 C51.4803,8.44378333 51.4791333,8.44245 51.4778,8.44128333 L51.4676333,8.43161667 L51.4573,8.42195 C50.6503,7.67461667 49.6544667,7.12978333 48.4973,6.80245 C47.4674667,6.51145 46.2569667,6.36378333 44.8994667,6.36378333 C44.0014667,6.36378333 43.1826333,6.44895 42.3973,6.62361667 C41.6429667,6.78228333 40.8898,7.01911667 40.1579667,7.32778333 L40.1163,7.34545 L40.0753,7.36461667 C39.5356333,7.61628333 39.1039667,7.82678333 38.7336333,8.03328333 L38.7336333,2.95061667 C38.7336333,2.34278333 38.5493,1.77211667 38.1856333,1.25495 C37.6966333,0.55695 36.9339667,0.15545 36.0946333,0.15545 L32.3101333,0.15545 C31.4951333,0.15545 30.7566333,0.52045 30.2641333,1.15978333 C29.4879667,0.53295 28.5076333,0.15545 27.4403,0.15545 C24.9344667,0.15545 22.8959667,2.22311667 22.8959667,4.76461667 C22.8959667,5.84545 23.2671333,6.83845 23.8838,7.62545 C23.7003,7.80195 23.5369667,7.99978333 23.3993,8.21695 C22.5353,7.26261667 21.0873,6.30895 18.7461333,6.30895 C17.9743,6.30895 17.2213,6.42478333 16.5083,6.65311667 L16.4886333,6.65928333 L16.4694667,6.66595 C15.7933,6.89511667 15.1699667,7.18461667 14.5666333,7.54978333 C14.4023,7.41628333 14.2296333,7.29095 14.0488,7.17378333 C13.1628,6.59995 12.1409667,6.30895 11.0119667,6.30895 C9.8953,6.30895 8.8343,6.52145 7.85846667,6.94078333 C7.62946667,7.03928333 7.40413333,7.14695 7.1823,7.26428333 C7.07396667,7.18261667 6.9578,7.10695 6.8338,7.03745 C6.38396667,6.78528333 5.9473,6.66311667 5.49846667,6.66311667 L2.7548,6.66328333 C1.97513333,6.66328333 1.25263333,6.99178333 0.720633333,7.58861667 C0.392133333,7.95678333 -3.33333334e-05,8.59261667 -3.33333334e-05,9.52795 L-3.33333334e-05,23.7466167 C-3.33333334e-05,24.50445 0.249133333,25.18445 0.720633333,25.7131167 C1.25263333,26.3097833 1.97513333,26.63845 2.75496667,26.63845 L6.6463,26.63845 C7.41346667,26.63845 8.12763333,26.3137833 8.6588,25.7237833 C9.18963333,26.31345 9.9083,26.63845 10.6836333,26.63845 L14.5749667,26.63845 C15.3469667,26.63845 16.0631333,26.3162833 16.5936333,25.73045 C17.1249667,26.31645 17.8406333,26.63845 18.6124667,26.63845 L22.5036333,26.63845 C23.1266333,26.63845 23.7109667,26.4256167 24.1929667,26.03695 C24.7024667,26.41395 25.3251333,26.63845 25.9993,26.63845 L28.8813,26.63845 C29.5471333,26.63845 30.1631333,26.4196167 30.6689667,26.0511167 C31.1244667,26.4281167 31.6949667,26.63845 32.3101333,26.63845 L36.0946333,26.63845 C36.8981333,26.63845 37.6318,26.2702833 38.1234667,25.6242833 C38.1518,25.5887833 38.1771333,25.5512833 38.2036333,25.5142833 C39.3628,26.31045 40.8194667,26.7187833 42.5589667,26.7187833 C43.6126333,26.7187833 44.6623,26.5491167 45.6789667,26.2141167 C45.8399667,26.16045 45.9993,26.10395 46.1569667,26.0452833 C46.2009667,26.0816167 46.2471333,26.1176167 46.2951333,26.1532833 C46.7741333,26.50745 47.3349667,26.6951167 47.9151333,26.6951167 L51.0209667,26.6951167 C51.5744667,26.6951167 52.1091333,26.51795 52.5601333,26.2011167 C52.9924667,26.48445 53.4918,26.63845 54.0214667,26.63845 L58.0534667,26.63845 C58.8023,26.63845 59.5108,26.3276167 60.0483,25.76295 C60.1388,25.6677833 60.2218,25.56745 60.2969667,25.4626167 C60.3721333,25.5682833 60.4549667,25.66895 60.5449667,25.76345 C60.8939667,26.1301167 61.3043,26.3867833 61.7636333,26.5251167 L62.1514667,26.64195 L62.5561333,26.62595 L62.5864667,26.6247833 L66.5713,26.6247833 C67.3203,26.6247833 68.0288,26.3137833 68.5661333,25.7491167 C68.7243,25.5832833 68.8561333,25.40045 68.9671333,25.2057833 C69.8374667,26.1061167 71.2874667,26.9981167 73.6233,26.9981167 C74.8121333,26.9981167 75.8979667,26.7977833 76.8503,26.40295 C77.0834667,26.3062833 77.3138,26.2016167 77.5413,26.0887833 C77.5581333,26.10195 77.5753,26.11495 77.5928,26.1277833 C78.0734667,26.4827833 78.6339667,26.6702833 79.2136333,26.6702833 L82.3194667,26.6702833 C82.8946333,26.6702833 83.4503,26.4807833 83.9119667,26.1401167 C84.3639667,26.4631167 84.8964667,26.63845 85.4631333,26.63845 L89.4951333,26.63845 C90.2441333,26.63845 90.9526333,26.32745 91.4899667,25.7627833 C91.5804667,25.6676167 91.6634667,25.5676167 91.7386333,25.4626167 C91.8139667,25.56845 91.8966333,25.66895 91.9866333,25.76345 C92.3363,26.1302833 92.7456333,26.38645 93.2039667,26.5246167 L93.5924667,26.64195 L93.9976333,26.62595 L94.0283,26.6247833 L98.0129667,26.6247833 C98.7624667,26.6247833 99.4711333,26.3136167 100.0088,25.7482833 C100.381467,25.35695 100.6243,24.87745 100.7283,24.3412833 C101.356133,24.90245 102.0513,25.3672833 102.809633,25.72445 C104.0063,26.3117833 105.354967,26.6191167 106.818633,26.6377833 L106.832467,26.63795 L106.846467,26.63795 L107.2343,26.63845 L107.257133,26.63845 L107.279967,26.6381167 L107.4178,26.6357833 L107.4808,26.63595 C108.177467,26.63595 108.834633,26.5606167 109.4423,26.4121167 C110.6813,26.1096167 111.748967,25.63645 112.6213,25.0092833 C113.1543,25.9802833 114.165467,26.63845 115.324633,26.63845 L118.206633,26.63845 C119.643133,26.63845 120.8513,25.6281167 121.203467,24.2631167 C122.898133,25.8402833 125.058133,26.63845 127.642967,26.63845 C130.321967,26.63845 132.6188,25.74595 134.3123,24.0566167 C134.508133,24.2512833 134.7318,24.4247833 134.9823,24.57045 C137.392967,25.9702833 139.606967,26.56745 142.386133,26.56745 C142.803967,26.56745 143.236967,26.55445 143.710133,26.52795 L143.739467,26.5262833 L143.768967,26.52395 C144.865467,26.4356167 146.5183,25.91095 147.8688,24.70295 C149.6558,23.1046167 150.351967,20.78295 149.831967,18.1612833" id="Fill-1" fill="#18BA5D"></path>
        <path d="M27.43825,2.57501667 C28.6099167,2.57501667 29.5630833,3.55735 29.5630833,4.76468333 C29.5630833,5.97201667 28.6099167,6.95418333 27.43825,6.95418333 C26.26675,6.95418333 25.3134167,5.97201667 25.3134167,4.76468333 C25.3134167,3.55735 26.26675,2.57501667 27.43825,2.57501667" id="Fill-4" fill="#FFFFFF"></path>
        <path d="M28.8793333,9.18195 C29.2563333,9.18195 29.5631667,9.52811667 29.5631667,9.95395 L29.5631667,23.4471167 C29.5631667,23.8727833 29.2563333,24.21895 28.8793333,24.21895 L25.9971667,24.21895 C25.6201667,24.21895 25.3133333,23.8727833 25.3133333,23.4471167 L25.3133333,9.95395 C25.3133333,9.52811667 25.6201667,9.18195 25.9971667,9.18195 L28.8793333,9.18195 Z" id="Fill-6" fill="#FFFFFF"></path>
        <path d="M36.0927167,2.57501667 C36.12155,2.57501667 36.1543833,2.57501667 36.2038833,2.64585 C36.2787167,2.75218333 36.31205,2.84635 36.31205,2.95068333 L36.31205,23.8430167 C36.31205,23.9610167 36.28305,24.05435 36.2258833,24.1201833 L36.2142167,24.1336833 L36.2038833,24.1480167 C36.1542167,24.21885 36.12155,24.21885 36.0927167,24.21885 L32.3082167,24.21885 C32.2432167,24.21885 32.2073833,24.2005167 32.17055,24.1480167 C32.0958833,24.0416833 32.0623833,23.9476833 32.0623833,23.8430167 L32.0623833,2.95068333 C32.0623833,2.83268333 32.0913833,2.73951667 32.14855,2.67401667 L32.1602167,2.66051667 L32.1707167,2.64568333 C32.2073833,2.59335 32.2432167,2.57501667 32.3082167,2.57501667 L36.0927167,2.57501667 Z" id="Fill-8" fill="#FFFFFF"></path>
        <path d="M18.7440833,8.7285 C21.49825,8.7285 22.8370833,10.5508333 22.8370833,14.2993333 L22.8370833,23.7465 C22.8370833,23.956 22.7799167,24.0468333 22.7300833,24.1026667 C22.6390833,24.2048333 22.5665833,24.2188333 22.50175,24.2188333 L18.61025,24.2188333 C18.5455833,24.2188333 18.4729167,24.2048333 18.38175,24.1026667 C18.2935833,24.0036667 18.2750833,23.8543333 18.2750833,23.7465 L18.2750833,15.2126667 C18.2750833,14.6213333 18.2174167,14.162 18.1024167,13.819 C17.91175,13.177 17.5235833,13.0811667 17.30925,13.0811667 C17.06725,13.0811667 16.8189167,13.1218333 16.5495833,13.2058333 C16.2784167,13.2903333 16.0044167,13.4423333 15.79275,13.5671667 C15.7010833,13.6225 15.61375,13.6678333 15.5334167,13.7098333 C15.4779167,13.7386667 15.4255833,13.766 15.3769167,13.7933333 C15.24875,13.865 15.13825,13.9268333 15.04675,13.9955 L14.90825,14.099 L14.90825,14.2721667 L14.90825,23.7465 C14.90825,23.956 14.85125,24.047 14.8015833,24.1026667 C14.7104167,24.2048333 14.63775,24.2188333 14.5730833,24.2188333 L10.6815833,24.2188333 C10.61675,24.2188333 10.54425,24.2048333 10.4530833,24.1026667 C10.36475,24.0036667 10.34625,23.8543333 10.34625,23.7465 L10.34625,15.2126667 C10.34625,14.6213333 10.28875,14.1621667 10.17375,13.819 C9.98291667,13.177 9.59475,13.0811667 9.38041667,13.0811667 C8.86958333,13.0811667 8.35691667,13.2293333 7.81291667,13.5343333 L7.79641667,13.5435 L7.78125,13.5543333 C7.69658333,13.6146667 7.60058333,13.6725 7.51591667,13.7235 C7.47825,13.7458333 7.44258333,13.7675 7.42375,13.7796667 C7.27108333,13.8651667 7.16458333,13.9648333 7.07708333,14.0466667 L6.96741667,14.1491667 L6.96741667,14.2993333 L6.96741667,23.7465 C6.96741667,23.956 6.91041667,24.047 6.86058333,24.1026667 C6.76775,24.2068333 6.69258333,24.2188333 6.64425,24.2188333 L2.75291667,24.2188333 C2.68808333,24.2188333 2.61558333,24.2048333 2.52441667,24.1026667 C2.43608333,24.0036667 2.41758333,23.8543333 2.41758333,23.7465 L2.41758333,9.528 C2.41758333,9.38733333 2.45241667,9.27966667 2.52441667,9.199 C2.61558333,9.097 2.68791667,9.08283333 2.75291667,9.08283333 L5.49641667,9.08266667 C5.49691667,9.08266667 5.54225,9.08833333 5.64825,9.14783333 C5.75508333,9.20766667 5.77675,9.24816667 5.77991667,9.25416667 L6.33908333,10.3038333 L6.54458333,10.6893333 L6.87258333,10.401 C7.46875,9.87683333 8.12125,9.46066667 8.81158333,9.16383333 C9.48391667,8.875 10.2235833,8.7285 11.0099167,8.7285 C11.6735833,8.7285 12.2365833,8.88416667 12.73125,9.2045 C13.2259167,9.525 13.6159167,9.94966667 13.89075,10.4671667 L14.0784167,10.8173333 L14.40025,10.584 C14.60875,10.4326667 14.8055833,10.2898333 15.02875,10.145 C15.1305833,10.079 15.23475,10.0076667 15.3434167,9.93333333 C15.4800833,9.83983333 15.6239167,9.74116667 15.7754167,9.64533333 C16.24025,9.35983333 16.7225833,9.13433333 17.24425,8.95733333 C17.7185833,8.8055 18.2230833,8.7285 18.7440833,8.7285" id="Fill-10" fill="#FFFFFF"></path>
        <path d="M116.763617,2.57501667 C117.935117,2.57501667 118.88845,3.55735 118.88845,4.76468333 C118.88845,5.97201667 117.935117,6.95418333 116.763617,6.95418333 C115.592117,6.95418333 114.63895,5.97201667 114.63895,4.76468333 C114.63895,3.55735 115.592117,2.57501667 116.763617,2.57501667" id="Fill-12" fill="#FFFFFF"></path>
        <path d="M129.726983,18.9982 C129.25165,19.6148667 128.547817,19.9312 127.64015,19.9312 C126.76815,19.9312 126.07065,19.6173667 125.567317,18.9982 C125.077817,18.3817 124.830983,17.5333667 124.830983,16.4737 C124.830983,15.3995333 125.07865,14.5502 125.567317,13.9492 C126.057983,13.3312 126.756483,13.0160333 127.64015,13.0160333 C128.52165,13.0160333 129.223483,13.3300333 129.726983,13.9492 C130.21565,14.5503667 130.463317,15.3995333 130.463317,16.4737 C130.463317,17.5477 130.21565,18.3972 129.726983,18.9982 M132.781317,10.7873667 C131.495983,9.42203333 129.765817,8.72853333 127.640817,8.72853333 C125.50665,8.72853333 123.828817,9.40236667 122.51165,10.7887 C121.231983,12.1738667 120.581483,14.0920333 120.581483,16.4867 C120.581483,18.8638667 121.231317,20.7727 122.512983,22.1600333 C123.804483,23.5450333 125.48215,24.2188667 127.640817,24.2188667 C129.79015,24.2188667 131.51965,23.5262 132.781317,22.1600333 C134.062983,20.7727 134.712817,18.8638667 134.712817,16.4867 C134.712817,14.0922 134.062983,12.1747 132.781317,10.7873667" id="Fill-14" fill="#FFFFFF"></path>
        <path d="M62.6539167,8.7285 C64.1044167,8.7285 65.15075,9.17833333 65.8530833,10.1036667 C66.5635833,11.0396667 66.92375,12.4496667 66.92375,14.2945 L66.92375,23.7336667 C66.92375,23.9371667 66.8639167,24.0261667 66.8115833,24.081 C66.73325,24.1635 66.6515833,24.2051667 66.56925,24.2051667 L62.53725,24.2051667 L62.4594167,24.2083333 C62.4130833,24.1943333 62.35975,24.1626667 62.2950833,24.0946667 C62.2204167,24.0166667 62.1829167,23.8996667 62.1829167,23.7471667 L62.1829167,15.2205 C62.1829167,14.6433333 62.1090833,14.165 61.9639167,13.7991667 C61.7195833,13.1826667 61.2840833,13.0905 61.04625,13.0905 C60.7605833,13.0905 60.4679167,13.1313333 60.1764167,13.212 C59.8899167,13.2911667 59.6040833,13.4288333 59.3359167,13.563 L58.4070833,14.0276667 L58.4059167,23.7471667 C58.4059167,23.9506667 58.3459167,24.0398333 58.29375,24.0946667 C58.21525,24.1771667 58.13375,24.2188333 58.0515833,24.2188333 L54.0194167,24.2188333 C53.95625,24.2188333 53.8864167,24.2053333 53.8010833,24.107 C53.7100833,24.0016667 53.6909167,23.8531667 53.6909167,23.7471667 L53.6909167,9.54066667 C53.6909167,9.40466667 53.7279167,9.29283333 53.80125,9.20816667 C53.8655833,9.134 53.9389167,9.09616667 54.0194167,9.09616667 L56.8864167,9.0955 C56.8905833,9.09616667 56.9310833,9.10416667 57.0479167,9.1655 C57.1150833,9.20083333 57.1634167,9.239 57.19825,9.28533333 L57.73175,10.3128333 L57.9285833,10.6918333 L58.25825,10.4201667 C58.8990833,9.89216667 59.6009167,9.47516667 60.3495833,9.1785 C61.0665833,8.87983333 61.8419167,8.7285 62.6539167,8.7285" id="Fill-16" fill="#FFFFFF"></path>
        <path d="M60.5534833,13.87205 L60.55515,13.87205 L60.5534833,13.87205 Z" id="Fill-18" fill="#FFFFFF"></path>
        <path d="M91.99505,13.87205 L91.9967167,13.87205 L91.99505,13.87205 Z" id="Fill-20" fill="#FFFFFF"></path>
        <path d="M118.204683,9.18195 C118.581683,9.18195 118.888517,9.52811667 118.888517,9.95395 L118.888517,23.4471167 C118.888517,23.8727833 118.581683,24.21895 118.204683,24.21895 L115.322517,24.21895 C114.945517,24.21895 114.63885,23.8727833 114.63885,23.4471167 L114.63885,9.95395 C114.63885,9.52811667 114.945517,9.18195 115.322517,9.18195 L118.204683,9.18195 Z" id="Fill-22" fill="#FFFFFF"></path>
        <path d="M141.613717,8.72183333 L141.613717,8.72183333 C142.102217,8.72183333 142.63805,8.759 143.349883,8.84166667 L143.763883,8.89216667 C144.635217,9.00316667 145.51205,9.2285 146.369717,9.56183333 C146.700883,9.6905 146.88955,10.0321667 146.81805,10.3741667 L146.316383,12.7725 C146.246883,13.1046667 145.945883,13.3458333 145.600717,13.3458333 C145.54955,13.3458333 145.497883,13.3405 145.451217,13.3306667 L145.172383,13.2688333 L144.527883,13.002 L144.036717,12.8048333 C143.237717,12.4926667 142.82905,12.3816667 142.35005,12.3478333 L142.232217,12.3411667 C142.18755,12.3391667 142.14305,12.3381667 142.098383,12.3381667 C141.91105,12.3381667 141.726717,12.355 141.54105,12.3883333 C141.099883,12.459 140.786717,12.687 140.681717,13.0138333 C140.586383,13.3115 140.685717,13.6436667 140.94305,13.898 C140.986883,13.943 141.04305,13.9855 141.11405,14.028 C141.25855,14.1146667 141.70505,14.2685 142.689383,14.599 C143.20055,14.7705 143.72905,14.9478333 144.03655,15.0643333 L144.164383,15.1143333 C146.181217,15.9416667 147.223717,17.0403333 147.44505,18.572 L147.44655,18.5818333 L147.44855,18.5918333 C147.819883,20.4088333 147.417883,21.8581667 146.253717,22.8995 C145.407717,23.6563333 144.293217,24.0541667 143.57255,24.1123333 C143.14505,24.1361667 142.756217,24.148 142.384217,24.148 C140.030883,24.148 138.23805,23.6641667 136.195883,22.4783333 C135.87405,22.2911667 135.72805,21.9475 135.832717,21.6228333 L136.58705,19.2885 C136.68405,18.9878333 136.96505,18.7858333 137.28605,18.7858333 C137.36255,18.7858333 137.438883,18.7976667 137.508717,18.8198333 L137.778883,18.9098333 C139.09555,19.6226667 140.81405,20.1006667 142.06555,20.1006667 C142.173217,20.1006667 142.27755,20.097 142.368717,20.0901667 C142.75855,20.0681667 143.060383,19.8183333 143.137883,19.4533333 C143.229217,19.0213333 142.995883,18.567 142.570217,18.3488333 L142.552717,18.3398333 L142.534383,18.333 L142.024883,18.1408333 L141.541883,17.9618333 C141.07355,17.7901667 140.63705,17.6353333 140.24305,17.5015 L139.885383,17.382 C138.758383,17.0571667 137.82555,16.5175 137.11305,15.7786667 C136.732383,15.3838333 136.45955,14.9615 136.399217,14.8106667 L136.38905,14.7831667 L136.344217,14.6368333 C135.842717,12.935 136.103383,11.5041667 137.119383,10.384 C137.88005,9.54516667 138.94555,9.03566667 139.655883,8.904 C140.474217,8.773 141.02305,8.722 141.613717,8.72183333" id="Fill-24" fill="#FFFFFF"></path>
        <path d="M82.3043,9.08803333 C82.3668,9.08803333 82.4364667,9.10153333 82.5213,9.2002 C82.5944667,9.2852 82.6316333,9.39753333 82.6316333,9.53453333 L82.6316333,23.7770333 L82.6361333,23.8998667 C82.6176333,24.0272 82.5713,24.0958667 82.5343,24.1387 C82.4701333,24.2130333 82.3973,24.2508667 82.3173,24.2508667 L79.2114667,24.2508667 C79.1731333,24.2508667 79.1123,24.2437 79.0288,24.1818667 C78.9261333,24.1060333 78.9158,24.0613667 78.9156333,24.0608667 L78.9088,24.0282 L78.8958,23.9975333 L78.5204667,23.1098667 L78.3469667,22.6995333 L77.9926333,22.9695333 C77.3441333,23.4638667 76.6473,23.8670333 75.9216333,24.1678667 C75.2644667,24.4403667 74.4903,24.5783667 73.6211333,24.5783667 C72.2104667,24.5783667 71.1529667,24.1365333 70.4763,23.2628667 C69.7599667,22.3530333 69.4118,21.0472 69.4118,19.2708667 L69.4118,9.53453333 C69.4118,9.39736667 69.4484667,9.29203333 69.5239667,9.21236667 C69.6021333,9.12986667 69.6831333,9.08803333 69.7648,9.08803333 L73.7894667,9.08803333 C73.8533,9.08803333 73.9266333,9.10303333 74.0301333,9.2122 C74.1058,9.29203333 74.1424667,9.39736667 74.1424667,9.53453333 L74.1424667,18.0555333 C74.1424667,19.4898667 74.5591333,20.2172 75.3811333,20.2172 C75.5396333,20.2172 75.7156333,20.1870333 75.9313,20.1415333 C76.1268,20.1002 76.3468,20.0248667 76.6673,19.8897 L77.9259667,19.3570333 L77.9266333,19.0248667 L77.9266333,9.53453333 C77.9266333,9.39736667 77.9633,9.29203333 78.0388,9.21236667 C78.1171333,9.12986667 78.1981333,9.08803333 78.2798,9.08803333 L82.3043,9.08803333 Z" id="Fill-26" fill="#FFFFFF"></path>
        <path d="M83.6815833,23.777 L83.68325,23.777 L83.6815833,23.777 Z" id="Fill-28" fill="#FFFFFF"></path>
        <path d="M94.09565,8.7285 C95.5459833,8.7285 96.5924833,9.17833333 97.2948167,10.1036667 C98.00515,11.0396667 98.3653167,12.4496667 98.3653167,14.2945 L98.3653167,23.7336667 C98.3653167,23.9371667 98.3054833,24.0261667 98.25315,24.081 C98.1748167,24.1635 98.09315,24.2051667 98.0108167,24.2051667 L93.9789833,24.2051667 L93.90115,24.2083333 C93.85465,24.1943333 93.8014833,24.1626667 93.73665,24.0946667 C93.66215,24.0166667 93.6244833,23.8996667 93.6244833,23.7471667 L93.6244833,15.2205 C93.6244833,14.6433333 93.5508167,14.165 93.40565,13.7991667 C93.16115,13.1826667 92.72565,13.0905 92.4879833,13.0905 C92.2023167,13.0905 91.9094833,13.1313333 91.6179833,13.212 C91.3314833,13.2911667 91.04565,13.4288333 90.77765,13.563 L89.84865,14.0276667 L89.84765,23.7471667 C89.84765,23.9506667 89.7874833,24.0398333 89.7354833,24.0946667 C89.6569833,24.1771667 89.5754833,24.2188333 89.49315,24.2188333 L85.4609833,24.2188333 C85.3979833,24.2188333 85.32815,24.2053333 85.2428167,24.107 C85.15165,24.0016667 85.13265,23.8531667 85.13265,23.7471667 L85.13265,9.54066667 C85.13265,9.40466667 85.1694833,9.29283333 85.2428167,9.20816667 C85.30715,9.134 85.3804833,9.09616667 85.4609833,9.09616667 L88.3279833,9.0955 C88.33215,9.09616667 88.37265,9.10416667 88.48965,9.1655 C88.5568167,9.20083333 88.6049833,9.239 88.6399833,9.28533333 L89.1734833,10.3128333 L89.37015,10.6918333 L89.6999833,10.4201667 C90.3408167,9.89216667 91.0424833,9.47516667 91.79115,9.1785 C92.50815,8.87983333 93.2834833,8.7285 94.09565,8.7285" id="Fill-30" fill="#FFFFFF"></path>
        <path d="M46.3755833,20.0968333 C46.32475,20.1228333 46.27225,20.1488333 46.2185833,20.1753333 C46.1155833,20.226 46.0084167,20.2791667 45.9009167,20.3388333 L45.8860833,20.3471667 L45.8705833,20.3538333 C45.2110833,20.6401667 44.4960833,20.7853333 43.7454167,20.7853333 C42.9440833,20.7853333 41.9889167,20.5881667 41.9889167,19.6495 C41.9889167,17.7703333 45.4234167,17.7703333 46.55225,17.7703333 L46.6280833,17.7703333 L46.97375,17.7703333 L46.97375,18.116 L46.97375,19.5876667 L46.97375,19.7993333 L46.7850833,19.8955 C46.72575,19.926 46.66275,19.9561667 46.59625,19.9883333 C46.52675,20.0218333 46.45325,20.0571667 46.3755833,20.0968333 M50.9494167,12.0961667 C50.70925,11.323 50.32675,10.6858333 49.81125,10.1973333 C49.28825,9.71266667 48.62275,9.353 47.8369167,9.13066667 C47.0214167,8.90016667 46.0324167,8.78333333 44.8975833,8.78333333 C44.1730833,8.78333333 43.5220833,8.8505 42.90725,8.98866667 C42.2984167,9.1155 41.6909167,9.3065 41.09625,9.55733333 C40.4765833,9.84633333 40.0175833,10.0708333 39.6795833,10.2803333 C39.24775,10.5236667 39.0194167,10.7281667 38.92075,10.8291667 C38.90725,10.843 38.86125,10.9163333 38.8279167,11.064 C38.8015833,11.1808333 38.8020833,11.275 38.8294167,11.3521667 L39.72875,13.694 C39.7740833,13.8175 39.8454167,13.8936667 39.95525,13.9386667 C39.9970833,13.9555 40.03725,13.9643333 40.07425,13.9643333 C40.1194167,13.9643333 40.1614167,13.9516667 40.20275,13.9256667 L40.21575,13.9176667 L40.2294167,13.9105 C40.4925833,13.7761667 40.7820833,13.6283333 41.08475,13.4806667 C41.2274167,13.417 41.3639167,13.3535 41.5064167,13.2871667 C41.69075,13.2015 41.8850833,13.111 42.09175,13.0206667 C42.5429167,12.821 42.94975,12.6906667 43.3339167,12.623 C43.7564167,12.5486667 44.1769167,12.511 44.58375,12.511 C45.2234167,12.511 45.73875,12.6735 46.11525,12.9938333 C46.51025,13.33 46.7184167,13.8336667 46.7335833,14.4906667 L46.74225,14.8638333 L46.3695833,14.8438333 L44.3690833,14.7371667 C44.2095833,14.7285 44.0495833,14.7243333 43.89375,14.7243333 C43.1314167,14.7243333 42.41725,14.8268333 41.7710833,15.0288333 C41.0040833,15.2815 40.2974167,15.642 39.6760833,16.099 C38.4449167,17.0576667 37.84275,18.2565 37.84275,19.7588333 C37.84275,21.1533333 38.2450833,22.2713333 39.0385833,23.0813333 C39.8299167,23.8895 41.01375,24.2993333 42.5570833,24.2993333 C43.3530833,24.2993333 44.14825,24.1703333 44.9200833,23.9161667 C45.7025833,23.6541667 46.44625,23.3181667 47.1285833,22.9183333 L47.1300833,22.9173333 L47.2220833,23.1348333 L47.5974167,24.0225 L47.6104167,24.053 L47.61725,24.0858333 C47.61725,24.0863333 47.62775,24.131 47.73025,24.2066667 C47.8139167,24.2685 47.8745833,24.2756667 47.9130833,24.2756667 L51.01875,24.2756667 C51.09875,24.2756667 51.1715833,24.238 51.23575,24.1635 C51.27275,24.1208333 51.3190833,24.052 51.33775,23.9248333 L51.33325,23.8018333 L51.33325,20.7061667 L51.33775,20.6956667 L51.33775,20.5463333 L51.33775,15.0193333 C51.33775,13.8526667 51.21075,12.8965 50.9494167,12.0961667" id="Fill-32" fill="#FFFFFF"></path>
        <path d="M108.922783,18.99705 C108.46395,19.6157167 107.780617,19.9303833 106.89995,19.9303833 C106.056117,19.9303833 105.379617,19.6192167 104.894117,18.99705 C104.418617,18.3818833 104.180617,17.5348833 104.180617,16.4737167 C104.180617,15.3988833 104.418617,14.5518833 104.894117,13.9503833 C105.369617,13.3317167 106.046117,13.0172167 106.89995,13.0172167 C107.75395,13.0172167 108.437283,13.3317167 108.922783,13.9503833 C108.992283,14.03805 109.056783,14.1317167 109.11595,14.2303833 C109.250783,14.4552167 109.483783,14.5968833 109.739783,14.5968833 L112.818117,14.30305 C113.185783,14.30305 113.460617,13.9447167 113.370283,13.5768833 C113.071617,12.3617167 112.63495,11.6247167 111.883117,10.7877167 C110.63745,9.42255 108.959617,8.72771667 106.90345,8.72771667 C104.833783,8.72771667 103.209617,9.40171667 101.93345,10.7877167 C100.694617,12.1738833 100.061617,14.0922167 100.061617,16.48755 C100.061617,18.8657167 100.691117,20.7737167 101.93345,22.1597167 C103.186117,23.5458833 104.810283,24.2197167 106.90345,24.2197167 C108.983117,24.2197167 110.66095,23.52505 111.883117,22.1597167 C112.634783,21.32005 113.105117,20.4488833 113.402617,19.2363833 C113.492783,18.86855 113.21795,18.5103833 112.85045,18.5103833 L109.74045,18.35055 C109.484783,18.35055 109.252117,18.4918833 109.117283,18.71605 C109.057783,18.8152167 108.992783,18.9087167 108.922783,18.99705" id="Fill-34" fill="#FFFFFF"></path>
    </g>
</svg>