<?xml version="1.0" encoding="UTF-8"?>
<svg width="24px" height="24px" viewBox="0 0 24 24" version="1.1" xmlns="http://www.w3.org/2000/svg" xmlns:xlink="http://www.w3.org/1999/xlink">
    <title>MA_express</title>
    <g id="MA_express" stroke="none" stroke-width="1" fill="none" fill-rule="evenodd">
        <path d="M15.0400855,2.22921179 L15.2349302,2.33006497 L22.7349302,6.64009336 C23.456761,7.05490819 23.9239104,7.80223463 23.9915083,8.63028313 L24,8.83883125 L24,17.1611688 C24,18.0009224 23.588376,18.7809364 22.9099982,19.2494213 L22.7349302,19.3599066 L15.2349302,23.669935 C14.5329404,24.0733478 13.6860537,24.1069655 12.9599145,23.7707882 L12.7650698,23.669935 L5.26506985,19.3599066 C4.73291493,19.0540929 4.33918119,18.5675568 4.14191655,18.0011876 L3,18 C2.44771525,18 2,17.5522847 2,17 C2,16.4477153 2.44771525,16 3,16 L4,16 L4,14 L2,14 C1.44771525,14 1,13.5522847 1,13 C1,12.4477153 1.44771525,12 2,12 L4,12 L4,10 L1,10 C0.44771525,10 -3.55271368e-15,9.55228475 -3.55271368e-15,9 C-3.55271368e-15,8.44771525 0.44771525,8 1,8 L4.14145218,8.00014688 C4.31629979,7.49724167 4.64602046,7.05719035 5.09000184,6.75057868 L5.26506985,6.64009336 L6.379,6 L2,6 C1.44771525,6 1,5.55228475 1,5 C1,4.44771525 1.44771525,4 2,4 L9.859,4 L12.7650698,2.33006497 C13.4670596,1.92665223 14.3139463,1.8930345 15.0400855,2.22921179 Z M6,9.768 L5.9983441,17.0798002 L6.00186047,17.2069877 C6.01395569,17.3551493 6.08459722,17.4888299 6.19252307,17.5779575 L6.2615826,17.6258471 L13,21.5 L13,13.809 L6,9.768 Z M22.001,9.767 L19.997217,10.9248273 L20,11 L20,14 C20,14.5522847 19.5522847,15 19,15 C18.4477153,15 18,14.5522847 18,14 L18,12.077 L15,13.809 L15,21.497 L21.667524,17.6685628 L21.7734834,17.6037196 C21.8898746,17.5233403 21.9695837,17.3947442 21.9929203,17.2498243 L22,17.1611688 L22.001,9.767 Z M9.527,6.495 L6.923,7.991 L14,12.077 L16.598,10.577 L9.527,6.495 Z M13.8458319,4.02582633 L13.7615826,4.06412447 L11.533,5.343 L18.597,9.422 L21.074,7.992 L14.3155703,4.10623432 L14.187,4.04 L14.1133392,4.01374771 C14.0250362,3.99197966 13.9324501,3.99607359 13.8458319,4.02582633 Z" id="Shape" fill="#171D20"></path>
    </g>
</svg>