<?xml version="1.0" encoding="UTF-8"?>
<svg width="24px" height="24px" viewBox="0 0 24 24" version="1.1" xmlns="http://www.w3.org/2000/svg" xmlns:xlink="http://www.w3.org/1999/xlink">
    <title>messages</title>
    <defs>
        <path d="M19.9679459,18.8787672 L19.8121672,21.3719043 C19.7233488,22.6160151 18.4318497,23.372412 17.3261132,22.8192253 L15.1084091,21.7292265 C15.0829422,21.7164863 15.0683255,21.7148614 15.0247542,21.7268155 C10.524962,22.8632825 5.76063255,20.8843618 3.39771178,16.7892742 C0.289705724,11.3474043 2.54263057,4.42212906 8.32712093,1.86881349 C12.7547064,-0.0665854062 18.0234417,1.31465031 20.8972702,5.17704634 C24.0281131,9.39546332 23.5972683,15.1293074 20.0320692,18.7793638 C19.9802098,18.8465854 19.9696155,18.8687339 19.9679459,18.8787672 Z M9.13146752,3.6999371 C4.43840148,5.77149585 2.6130052,11.3825893 5.13221786,15.7935488 C7.04316524,19.1053228 10.8976908,20.7063456 14.5050287,19.795774 C15.0128644,19.6506018 15.5409535,19.7093092 15.9969013,19.9374307 L17.8415963,20.8440961 L17.9698913,18.8164216 C17.9698913,18.2999653 18.1627433,17.9140586 18.4992333,17.4932249 L18.5686984,17.4150984 C21.4815562,14.4651679 21.8422243,9.80657648 19.2923423,6.37044774 C16.9755689,3.25720584 12.7051368,2.13781152 9.13146752,3.6999371 Z M18.2146055,21.0274296 C18.2134466,21.0268498 18.212286,21.0262794 18.2111237,21.0257183 L18.2146055,21.0274296 Z M17.5,10.5 C18.3284271,10.5 19,11.1715729 19,12 C19,12.8284271 18.3284271,13.5 17.5,13.5 C16.6715729,13.5 16,12.8284271 16,12 C16,11.1715729 16.6715729,10.5 17.5,10.5 Z M12.5,10.5 C13.3284271,10.5 14,11.1715729 14,12 C14,12.8284271 13.3284271,13.5 12.5,13.5 C11.6715729,13.5 11,12.8284271 11,12 C11,11.1715729 11.6715729,10.5 12.5,10.5 Z M7.5,10.5 C8.32842712,10.5 9,11.1715729 9,12 C9,12.8284271 8.32842712,13.5 7.5,13.5 C6.67157288,13.5 6,12.8284271 6,12 C6,11.1715729 6.67157288,10.5 7.5,10.5 Z" id="path-1"></path>
    </defs>
    <g id="messages" stroke="none" stroke-width="1" fill="none" fill-rule="evenodd">
        <mask id="mask-2" fill="white">
            <use xlink:href="#path-1"></use>
        </mask>
        <use id="Shape" fill="#171D20" xlink:href="#path-1"></use>
    </g>
</svg>