<?xml version="1.0" encoding="UTF-8"?>
<svg width="24px" height="24px" viewBox="0 0 24 24" version="1.1" xmlns="http://www.w3.org/2000/svg" xmlns:xlink="http://www.w3.org/1999/xlink">
    <title>Artboard Copy 2</title>
    <g id="Artboard-Copy-2" stroke="none" stroke-width="1" fill="none" fill-rule="evenodd">
        <path d="M12.042,20.22 C10.2233242,20.22 8.77867202,19.7286716 7.708,18.746 C6.63732798,17.7633284 6.0286674,16.3846755 5.882,14.61 L4.43,14.61 C4.10733172,14.61 3.946,14.4486683 3.946,14.126 L3.946,13.554 C3.946,13.2313317 4.10733172,13.07 4.43,13.07 L5.816,13.07 L5.816,11.53 L4.43,11.53 C4.10733172,11.53 3.946,11.3686683 3.946,11.046 L3.946,10.474 C3.946,10.1513317 4.10733172,9.99 4.43,9.99 L5.882,9.99 C6.0286674,8.21532446 6.63732798,6.83667158 7.708,5.854 C8.77867202,4.87132842 10.2233242,4.38 12.042,4.38 C13.0980053,4.38 14.0146628,4.54133172 14.792,4.864 C15.5693372,5.18666828 16.2109975,5.58266432 16.717,6.052 C17.2230025,6.52133568 17.6006654,7.02366399 17.85,7.559 C18.0993346,8.09433601 18.224,8.5819978 18.224,9.022 C18.224,9.15400066 18.1763338,9.26766619 18.081,9.363 C17.9856662,9.45833381 17.8720007,9.506 17.74,9.506 L16.728,9.506 C16.6106661,9.506 16.4933339,9.46566707 16.376,9.385 C16.2586661,9.30433293 16.170667,9.18333414 16.112,9.022 C15.9946661,8.69933172 15.8296677,8.37666828 15.617,8.054 C15.4043323,7.73133172 15.129335,7.44533458 14.792,7.196 C14.454665,6.94666542 14.0586689,6.74500077 13.604,6.591 C13.1493311,6.43699923 12.6286696,6.36 12.042,6.36 C10.8099938,6.36 9.84933678,6.6899967 9.16,7.35 C8.47066322,8.0100033 8.07466718,8.8899945 7.972,9.99 L12.482,9.99 C12.8046683,9.99 12.966,10.1513317 12.966,10.474 L12.966,11.046 C12.966,11.3686683 12.8046683,11.53 12.482,11.53 L7.906,11.53 L7.906,13.07 L12.482,13.07 C12.8046683,13.07 12.966,13.2313317 12.966,13.554 L12.966,14.126 C12.966,14.4486683 12.8046683,14.61 12.482,14.61 L7.972,14.61 C8.06000044,15.7100055 8.45232985,16.5899967 9.149,17.25 C9.84567015,17.9100033 10.8099938,18.24 12.042,18.24 C12.7020033,18.24 13.270331,18.170334 13.747,18.031 C14.2236691,17.891666 14.6269984,17.7010012 14.957,17.459 C15.2870017,17.2169988 15.5473324,16.9346683 15.738,16.612 C15.8905341,16.3538654 16.0102134,16.081654 16.0970399,15.7953605 L16.156,15.578 C16.1853335,15.4166659 16.2586661,15.2956671 16.376,15.215 C16.4933339,15.1343329 16.6106661,15.094 16.728,15.094 L17.74,15.094 C17.8720007,15.094 17.9856662,15.1416662 18.081,15.237 C18.1763338,15.3323338 18.224,15.4459993 18.224,15.578 C18.224,16.0620024 18.1066678,16.5753306 17.872,17.118 C17.6373322,17.6606694 17.2743358,18.1629977 16.783,18.625 C16.2916642,19.0870023 15.6536706,19.4683318 14.869,19.769 C14.0843294,20.0696682 13.1420055,20.22 12.042,20.22 Z" id="Icon-colour" fill="#171D20"></path>
    </g>
</svg>