<?xml version="1.0" encoding="UTF-8"?>
<svg width="24px" height="24px" viewBox="0 0 24 24" version="1.1" xmlns="http://www.w3.org/2000/svg" xmlns:xlink="http://www.w3.org/1999/xlink">
    <title>Artboard</title>
    <g id="Artboard" stroke="none" stroke-width="1" fill="none" fill-rule="evenodd">
        <path d="M14.1704315,17.43322 C14.5733743,17.0555223 15.2062085,17.0759876 15.5839061,17.4789305 C15.9616038,17.8818733 15.9411385,18.5147074 15.5381957,18.8924051 C14.2845703,20.0674883 12.7471802,21.0719687 10.9300305,21.9083895 C10.6605925,22.0324098 10.3500018,22.0304199 10.082175,21.9029572 C3.72428599,18.8771456 0.868314542,13.6717584 1.61664069,6.49627328 C1.6534074,6.14372781 1.87405371,5.8369883 2.19660456,5.69001536 L10.0972635,2.09001536 C10.3606637,1.96999488 10.6631472,1.96999488 10.9265474,2.09001536 L18.8272063,5.69001536 C19.1476645,5.83603478 19.3676956,6.1398485 19.4064809,6.489864 C19.4643396,7.01200697 19.5076402,7.45382617 19.536403,7.81646867 C19.5800699,8.36702443 19.1691554,8.84873713 18.6185996,8.8924041 C18.0680439,8.93607107 17.5863312,8.52515652 17.5426642,7.97460076 C17.5264728,7.77045848 17.5050763,7.53660723 17.4784792,7.2732961 L10.5119054,4.09891965 L3.55464429,7.26905272 C3.10433336,13.1469289 5.39711762,17.2949729 10.5192388,19.8896421 C11.9609735,19.1838362 13.1770262,18.3643865 14.1704315,17.43322 Z M16.9195739,11.5454807 C17.7802842,10.405366 19.2917933,9.86566269 20.7371832,10.3075627 C22.5857171,10.8727163 23.6261024,12.8293965 23.0609489,14.6779304 C22.4957954,16.5264642 20.5391152,17.5668496 18.6905813,17.001696 C17.1052596,16.5170146 16.1143274,15.0088715 16.2207536,13.4232134 L14.716828,12.9634172 L14.5706422,13.4415696 C14.4091697,13.9697221 13.8501183,14.2669751 13.3219657,14.1055027 C12.7938132,13.9440302 12.4965602,13.3849787 12.6580327,12.8568262 L12.8042185,12.3786738 L12.3077028,12.2268737 L11.8691452,13.6613309 C11.7076728,14.1894834 11.1486213,14.4867364 10.6204688,14.3252639 C10.0923162,14.1637915 9.79506329,13.60474 9.95653572,13.0765875 L10.3950933,11.6421303 C9.86694075,11.4806579 9.5696878,10.9216064 9.73116023,10.3934539 C9.89263266,9.86530133 10.4516842,9.56804838 10.9798367,9.72952081 L16.9195739,11.5454807 L16.9195739,11.5454807 Z M19.2753247,15.0890865 C20.0675535,15.3312952 20.9061307,14.8854157 21.1483394,14.0931869 C21.390548,13.3009581 20.9446686,12.4623809 20.1524398,12.2201723 C19.360211,11.9779636 18.5216338,12.423843 18.2794251,13.2160718 C18.0372165,14.0083006 18.4830959,14.8468779 19.2753247,15.0890865 Z" id="Icon-colour" fill="#171C1F"></path>
    </g>
</svg>