<?xml version="1.0" encoding="UTF-8"?>
<svg width="24px" height="24px" viewBox="0 0 24 24" version="1.1" xmlns="http://www.w3.org/2000/svg" xmlns:xlink="http://www.w3.org/1999/xlink">
    <title>Group</title>
    <g id="Page-1" stroke="none" stroke-width="1" fill="none" fill-rule="evenodd">
        <g id="Desktop---1-Open" transform="translate(-948.000000, -20.000000)">
            <g id="BTN-PUBLICAR" transform="translate(943.000000, 16.000000)">
                <g id="Group" transform="translate(5.000000, 4.000000)">
                    <circle id="Oval" fill="#FEFEFE" opacity="0" cx="12" cy="12" r="12"></circle>
                    <circle id="Oval" fill="#FEFEFE" cx="12" cy="12" r="10"></circle>
                    <path d="M13,13.0665068 L13,17 C13,17.5522847 12.5522847,18 12,18 C11.4477153,18 11,17.5522847 11,17 L11,13.0665068 L7,13.0665068 C6.44771525,13.0665068 6,12.6187915 6,12.0665068 C6,11.514222 6.44771525,11.0665068 7,11.0665068 L11,11.0665068 L11,7 C11,6.44771525 11.4477153,6 12,6 C12.5522847,6 13,6.44771525 13,7 L13,11.0665068 L17,11.0665068 C17.5522847,11.0665068 18,11.514222 18,12.0665068 C18,12.6187915 17.5522847,13.0665068 17,13.0665068 L13,13.0665068 Z" id="Path" fill="#171D20"></path>
                </g>
            </g>
        </g>
    </g>
</svg>