<?xml version="1.0" encoding="UTF-8"?>
<svg width="24px" height="24px" viewBox="0 0 24 24" version="1.1" xmlns="http://www.w3.org/2000/svg" xmlns:xlink="http://www.w3.org/1999/xlink">
    <title>Artboard</title>
    <defs>
        <path d="M7,4 C5.34314575,4 4,5.34314575 4,7 L4,17 C4,18.6568542 5.34314575,20 7,20 L17,20 C18.6568542,20 20,18.6568542 20,17 L20,7 C20,5.34314575 18.6568542,4 17,4 L7,4 Z M7,2 L17,2 C19.7614237,2 22,4.23857625 22,7 L22,17 C22,19.7614237 19.7614237,22 17,22 L7,22 C4.23857625,22 2,19.7614237 2,17 L2,7 C2,4.23857625 4.23857625,2 7,2 Z M13,13.0665068 L13,17 C13,17.5522847 12.5522847,18 12,18 C11.4477153,18 11,17.5522847 11,17 L11,13.0665068 L7,13.0665068 C6.44771525,13.0665068 6,12.6187915 6,12.0665068 C6,11.514222 6.44771525,11.0665068 7,11.0665068 L11,11.0665068 L11,7 C11,6.44771525 11.4477153,6 12,6 C12.5522847,6 13,6.44771525 13,7 L13,11.0665068 L17,11.0665068 C17.5522847,11.0665068 18,11.514222 18,12.0665068 C18,12.6187915 17.5522847,13.0665068 17,13.0665068 L13,13.0665068 Z" id="path-1"></path>
    </defs>
    <g id="Artboard" stroke="none" stroke-width="1" fill="none" fill-rule="evenodd">
        <mask id="mask-2" fill="white">
            <use xlink:href="#path-1"></use>
        </mask>
        <use id="Shape" fill="#171C1F" xlink:href="#path-1"></use>
    </g>
</svg>