<?xml version="1.0" encoding="UTF-8"?>
<svg width="24px" height="24px" viewBox="0 0 24 24" version="1.1" xmlns="http://www.w3.org/2000/svg" xmlns:xlink="http://www.w3.org/1999/xlink">
    <title>Artboard Copy</title>
    <g id="Artboard-Copy" stroke="none" stroke-width="1" fill="none" fill-rule="evenodd">
        <path d="M22.664257,14.3934985 C23.270398,15.3012728 23.0332799,16.5335377 22.134639,17.1458392 L17.9651097,19.9868059 C17.0664688,20.5991074 15.846602,20.3595794 15.240461,19.4518051 L13.0794534,16.2154173 L6.16441092,20.9276754 C4.64795432,21.9609342 2.58942914,21.5567307 1.56656625,20.0248615 C0.543703362,18.4929924 0.943840122,16.4135454 2.46029672,15.3802866 L9.37533917,10.6680285 L7.21488027,7.43246266 C6.6087393,6.52468836 6.84585738,5.29242347 7.74449832,4.68012197 L11.9140276,1.83915529 C12.7718212,1.25468569 13.922302,1.44636653 14.5523044,2.25452798 L14.6386763,2.37415612 L22.664257,14.3934985 Z M11.9822124,14.5721575 L10.4731289,12.3121102 L3.55781204,17.0239574 C2.93999639,17.4449147 2.77697771,18.2920968 3.19369962,18.9161916 C3.61042154,19.5402864 4.44907995,19.704962 5.0668956,19.2840047 L11.9822124,14.5721575 Z M14.1948678,5.25456454 L13.0115429,3.48282605 L8.84201364,6.32379273 L10.0253385,8.09553122 L14.1948678,5.25456454 Z M19.8536568,13.729331 L15.6841275,16.5702976 L16.8675944,18.3431351 L21.0371237,15.5021685 L19.8536568,13.729331 Z M18.7561415,12.0856602 L15.2923831,6.8982353 L11.1228539,9.73920198 L14.5866122,14.9266269 L18.7561415,12.0856602 Z" id="Icon-colour" fill="#171D20"></path>
    </g>
</svg>